<svg xmlns="http://www.w3.org/2000/svg" viewBox="0 0 512 512"><path d="M339.7 0c7.2.5 14.9.6 21.7 1.7l10.3 1.6c2.3.4 7.7 1.7 16.2 4 10.8 2.9 21.8 7.9 32.3 13.2 4 2 9.2 5.2 15.5 9.5 23.5 16 42.4 37.1 55.8 61.8 4.5 8.3 8.9 19.2 12.3 29.3.8 2.3 2.2 7.6 4.2 15.9 1.1 4.7 1.5 8.9 2.3 13.7 1.1 6.6 1.2 14.4 1.6 21.6v166.1c-.2 5.3-.5 10.6-.9 15.9-.3 4.6-1.2 9-1.8 13.9-.4 2.7-1 5.9-1.9 9.5-3.1 12.2-6 21.8-10.7 31.8-4.8 10.2-8.5 17-14.6 26-12.2 18.2-27.7 33.7-46.3 46.4-14 9.5-28.6 16.3-44.5 21.7-3 1-9 2.6-18 4.7-3.9.9-8 1.2-12.2 2-2.3.4-5.3.7-9.2.9l-10.9.7h-167c-7.8-.4-15.9-.5-23.3-1.7-2.8-.5-6.3-1-10.3-1.6-1.9-.3-7.1-1.6-15.7-3.9-4.7-1.2-8.3-2.8-12.8-4.3-6.4-2.2-15.7-6.7-19.9-8.9-4.6-2.4-9.7-5.6-15.3-9.4-23.5-16-42.6-37.1-55.9-61.8-4.5-8.3-8.9-19.1-12.3-29.1-1-3-2.6-9-4.7-18-.9-3.9-1.2-8-2-12.2C.6 354.6.6 347.2.1 340.3v-168c.4-6.5.6-13.2 1.4-19.5C10.9 73.4 73.2 11.4 152.2 1.4c6.4-.8 13.4-1 20.2-1.4h167.3zM144.4 190.6c3.1 0 4.6-1.4 6.1-4.1 1.7-3.3 3.1-7.1 4.8-10.3 7-13.2 17.5-22.6 31.6-28.1 2-.8 6.5-2.8 7.8-4.4 3.2-3.9 1.4-9.4-3.2-11.1-16.7-6.5-29.9-16.1-37.2-32.7-1-2.2-2.1-4.9-3.5-8.2-1.4-3.4-3.6-5.2-6.6-5.2-2.9 0-5.1 1.7-6.6 5.2-1.3 3.2-2.5 6-3.5 8.2-7.2 16.7-20.4 26.3-37.1 32.8-4.6 1.8-6.4 7.3-3.1 11.1 1.3 1.6 5.8 3.6 7.8 4.4 14.1 5.5 24.7 14.8 31.7 28 1.7 3.2 3.1 6.9 4.8 10.2 1.6 2.8 3.2 4.2 6.2 4.2zm156.6 3c-11 8.9-18.5 15.2-22.5 18.9-8 7.1-18.9 18-32.9 32.6-11.6 12.1-23.9 27.3-36.9 45.6-1.5 2.1-4.4 6.5-9 13.4-20.9 31.7-37.4 67.1-49.3 103.3-.1.3.1.7.4.8h.2c1.4.1 2.9-.2 4.3-.9 8.9-4.2 17-9.1 24.3-14.8.7-.5 1.2-1.3 1.4-2.2.1-.2.7-2.9 2-8 4.6-18 14.9-31.6 31.1-41.1 12-7 25.7-10.7 38.3-13.5 15.3-3.3 28.7-7.2 40.1-11.8 17.6-7.1 33.3-17 47.1-29.8.1-.1.1-.3 0-.4s-.2-.1-.3-.1c-9 2.1-18.1 2.6-27.2 1.7-3.3-.3-6.4-1.1-9.1-2.4-.2-.1-.3-.3-.2-.6.1-.2.2-.3.4-.3 20.7-.4 41.8-10 57.2-23.6 12.8-11.2 23.7-25 30.3-40.2.1-.2 0-.4-.2-.5h-.2l-38.7-1.2c-.1 0-.2-.1-.2-.3 0-.1.1-.2.2-.2 10.5-2.9 20.1-7.6 28.7-13.9 11.2-8.2 20.7-17.6 28.6-28.2 10.2-13.7 17.7-26.1 22.4-37.3 1.8-4.2 3.2-7.8 4-10.7.1-.4-.1-.8-.5-1h-.2c-6.4 0-13 .3-20.1 1-11.7 1.1-23.6 2.7-35.8 4.6-29.8 4.8-57.9 13.5-84.5 26.1-26.1 12.4-48.7 29.8-67.8 52.2-24.3 28.6-39.1 62.5-44.4 99.7 0 .3.1.5.4.6.2 0 .4-.1.5-.2 8.7-15.3 18.5-29.8 29.6-43.6 5.4-6.7 11.9-13.9 19.6-21.7 14.6-14.8 30.2-27.8 48.2-40.2 3.8-2.6 7.1-4.7 9.9-6.3l10.2-5.9c.1-.1.2 0 .3 0h0c.4.2.3.3.3.4z" fill="#50cb7a"/><path d="M144.3 86.5c2.9 0 5.1 1.7 6.6 5.2l3.5 8.2c7.3 16.7 20.5 26.3 37.2 32.7 4.6 1.8 6.4 7.3 3.2 11.1-1.3 1.6-5.8 3.6-7.8 4.4-14.1 5.5-24.7 14.9-31.6 28.1-1.7 3.2-3.1 6.9-4.8 10.3-1.4 2.7-3 4.1-6.1 4.1s-4.6-1.4-6.1-4.1c-1.7-3.3-3.1-7.1-4.8-10.2-7-13.2-17.6-22.5-31.7-28-2-.8-6.5-2.8-7.8-4.4-3.2-3.8-1.4-9.4 3.1-11.1 16.7-6.5 29.9-16.1 37.1-32.8 1-2.2 2.1-4.9 3.5-8.2 1.4-3.5 3.6-5.3 6.5-5.3z" fill="#fff"/><path d="M301 193.6c.1-.1.1-.2 0-.3h0c-.1-.1-.2-.1-.3 0s-3.6 2.1-10.2 5.9c-2.8 1.6-6.1 3.7-9.9 6.3-18 12.3-33.6 25.4-48.2 40.2-7.7 7.8-14.2 15-19.6 21.7-11 13.7-20.9 28.3-29.6 43.6-.1.2-.4.3-.7.2-.2-.1-.3-.3-.2-.5 5.4-37.1 20.1-71.1 44.4-99.7 19-22.4 41.6-39.8 67.8-52.2 26.6-12.6 54.7-21.3 84.5-26.1 12.2-2 24.1-3.5 35.8-4.6 7-.7 13.7-1 20.1-1 .4 0 .8.3.8.8v.2c-.9 2.9-2.2 6.5-4 10.7-4.8 11.1-12.2 23.6-22.4 37.3-7.9 10.6-17.4 20-28.6 28.2-8.6 6.3-18.2 10.9-28.7 13.9-.1 0-.2.2-.2.3s.1.2.2.2l38.7 1.2c.2 0 .4.2.4.4v.2c-6.6 15.2-17.6 28.9-30.3 40.2-15.4 13.5-36.5 23.1-57.2 23.6-.2 0-.4.2-.4.4s.1.3.3.4c2.7 1.2 5.7 2 9.1 2.4a80.12 80.12 0 0 0 27.2-1.7c.2 0 .3.1.4.2 0 .1 0 .2-.1.3-13.8 12.8-29.5 22.7-47.1 29.8-11.5 4.6-24.9 8.5-40.1 11.8-12.6 2.7-26.3 6.4-38.3 13.5-16.2 9.4-26.6 23.1-31.1 41.1l-2 8c-.2.9-.7 1.6-1.4 2.2-7.3 5.7-15.4 10.6-24.3 14.8-1.4.7-2.8 1-4.3.9a.65.65 0 0 1-.6-.6v-.2c11.9-36.1 28.4-71.6 49.3-103.3l9-13.4c13-18.3 25.3-33.5 36.9-45.6 14-14.6 24.9-25.5 32.9-32.6 3.5-3.9 11-10.2 22-19.1z" fill="#dbf5e4"/></svg>
