<svg xmlns="http://www.w3.org/2000/svg" viewBox="0 0 512 512"><path d="M339.7 0c7.2.5 14.9.6 21.7 1.7l10.3 1.6c2.3.4 7.7 1.7 16.2 4 10.8 2.9 21.8 7.9 32.3 13.2 4 2 9.2 5.2 15.5 9.5 23.5 16 42.4 37.1 55.8 61.8 4.5 8.3 8.9 19.2 12.3 29.3.8 2.3 2.2 7.6 4.2 15.9 1.1 4.7 1.5 8.9 2.3 13.7 1.1 6.6 1.2 14.4 1.6 21.6v166.1c-.2 5.3-.5 10.6-.9 15.9-.3 4.6-1.2 9-1.8 13.9-.4 2.7-1 5.9-1.9 9.5-3.1 12.2-6 21.8-10.7 31.8-4.8 10.2-8.5 17-14.6 26-12.2 18.2-27.7 33.7-46.3 46.4-14 9.5-28.6 16.3-44.5 21.7-3 1-9 2.6-18 4.7-3.9.9-8 1.2-12.2 2-2.3.4-5.3.7-9.2.9l-10.9.7h-167c-7.8-.4-15.9-.5-23.3-1.7-2.8-.5-6.3-1-10.3-1.6-1.9-.3-7.1-1.6-15.7-3.9-4.7-1.2-8.3-2.8-12.8-4.3-6.4-2.2-15.7-6.7-19.9-8.9-4.6-2.4-9.7-5.6-15.3-9.4-23.5-16-42.6-37.1-55.9-61.8-4.5-8.3-8.9-19.1-12.3-29.1-1-3-2.6-9-4.7-18-.9-3.9-1.2-8-2-12.2C.6 354.6.6 347.2.1 340.3v-168c.4-6.5.6-13.2 1.4-19.5C10.9 73.4 73.2 11.4 152.2 1.4c6.4-.8 13.4-1 20.2-1.4h167.3z" fill="#50cb7a90"/><path d="M265 169.7c.1-.1.1-.2 0-.3h0c-.1-.1-.2-.1-.3 0s-4.2 2.4-11.9 6.9c-3.3 1.9-7.1 4.3-11.5 7.3-20.9 14.3-39.1 29.6-56.1 46.8-9 9.1-16.5 17.5-22.8 25.3-12.8 15.9-24.3 32.9-34.4 50.7-.1.2-.5.3-.8.2-.2-.1-.3-.3-.2-.6 6.3-43.2 23.4-82.7 51.7-116 22.1-26.1 48.4-46.3 78.9-60.7 31-14.7 63.7-24.8 98.3-30.4 14.2-2.3 28-4.1 41.7-5.4 8.1-.8 15.9-1.2 23.4-1.2.5 0 .9.3.9.9v.2c-1 3.4-2.6 7.6-4.7 12.5-5.6 12.9-14.2 27.5-26.1 43.4a154.77 154.77 0 0 1-33.3 32.8c-10 7.3-21.2 12.7-33.4 16.2-.1 0-.2.2-.2.3s.1.2.2.2l45 1.4c.2 0 .5.2.5.5v.2c-7.7 17.7-20.5 33.6-35.3 46.8-17.9 15.7-42.5 26.9-66.6 27.5-.2 0-.5.2-.5.5s.1.3.3.5c3.1 1.4 6.6 2.3 10.6 2.8 10.6 1.2 21.3.5 31.7-2 .2 0 .3.1.5.2 0 .1 0 .2-.1.3-16.1 14.9-34.3 26.4-54.8 34.7-13.4 5.4-29 9.9-46.7 13.7-14.7 3.1-30.6 7.4-44.6 15.7-18.9 10.9-31 26.9-36.2 47.8l-2.3 9.3c-.2 1-.8 1.9-1.6 2.6-8.5 6.6-17.9 12.3-28.3 17.2-1.6.8-3.3 1.2-5 1a.68.68 0 0 1-.7-.7v-.2c13.8-42 33-83.3 57.4-120.2l10.5-15.6c15.1-21.3 29.4-39 42.9-53.1 16.3-17 29-29.7 38.3-37.9 4-4.4 12.8-11.7 25.6-22.1h0z" fill="#e9f5ed"/></svg>
